<svg version="1" xmlns="http://www.w3.org/2000/svg" width="737.333" height="737.333" viewBox="0 0 553.000000 553.000000"><path d="M274.3 14.7c-3.6 2.4-3.2 8.6.7 11.5l3 2.2v19.8c0 10.9-.3 19.8-.7 19.8-.5.1-5.1.2-10.3.4-10.9.4-19.3 1.3-26.6 2.7-2.8.5-6.4 1.2-8 1.5-21.9 3.8-53.9 16.9-74.4 30.6-46.5 31-79.1 78.1-91 131.7-1 4.7-2.2 10.8-2.5 13.6-.4 2.7-1 7-1.5 9.3-.8 4.6-.6 46.3.3 49.7.3 1.1 1 5.6 1.7 9.9 2 13.5 9.9 40.8 12.1 42.2 2.2 1.3 1.9-.7-1.1-9.7-2.9-8.9-6.5-21.7-7.4-26.9-.2-1.4-.7-4.1-1-6-2.3-13.3-2.9-21.5-2.9-37 0-11.3 1.2-25.6 2.9-34.5 11-58.9 42.9-107.4 92-140 21.8-14.5 54.4-27.6 76.9-31 2.2-.3 7.6-1.1 12-1.8s12.8-1.4 18.8-1.6l10.7-.3v28.9h122.5l.1 185 .1 185H286.8c-84.5 0-114.2.3-115.1 1.2-.8.8-.7 1.1.4 1.2.7 0 52.8.1 115.7.2 62.8 0 114.2.2 114.2.3 0 .3-14.9 9.2-21.4 12.8-18.9 10.2-51.4 21.1-69.5 23.2-3.1.3-5.8.8-6.1.9-1.1.7-19.8 1.9-28.5 1.9-9.8 0-29.7-1.2-31.7-1.9-.7-.2-3.1-.6-5.3-.9-17.6-2.2-42-9.9-62.3-19.6-56.1-27-98.2-74.8-117.7-133.7-2-6-3.7-11.7-3.9-12.7-.1-1.1-.8-2.2-1.4-2.4-1.3-.4-17.1 3.7-17.6 4.7-.4.7 7.8 25.6 11.3 33.9 1.2 3 4.5 10.2 7.4 16 23.5 47.2 63.4 86.8 111.1 110.1 18 8.9 30.4 13.4 49.1 18.1 13.1 3.3 17.9 4.2 29.5 5.6 50.5 5.9 99.4-3 143.6-26 65.5-34.2 113.2-97.4 127.4-168.8 3.8-19 4.4-26.4 4.5-48.8 0-23-.8-31.3-4.7-50.5-16.5-80.9-74.2-148.9-152.3-179.3-12-4.6-30.9-10.1-35.9-10.5l-4-.2-1.8 8c-1 4.4-1.6 8.5-1.4 9 .2.6 3.2 1.6 6.7 2.4 18.7 3.8 49.9 16.7 67.4 28l8 5.1h-122V71h4.7c3.7 0 4.6-.3 4.2-1.4-.4-1-1.9-1.4-4.7-1.3l-4.2.1V48.2c0-11.1.3-20.2.8-20.2 1.8 0 5.7-5.1 5.7-7.3 0-1.3-.9-3.6-2.1-5.1-2.4-3-7-3.4-10.6-.9zm135.5 87.5c20.3 14.8 41.5 37.3 55.7 59.3 10 15.4 20.6 37.5 25 51.6 2.7 8.8 6.4 22.8 7 26.2.3 1.8 1 5.7 1.5 8.7 2.6 14 3.5 46.2 1.8 61-3.3 28.4-11.6 55.6-24.5 80-16 30.3-35.6 53.7-64.3 76.3-3 2.4-7.8 5.7-8.3 5.7-.3 0-.5-83.9-.5-186.5s.2-186.5.4-186.5c.3 0 3.1 1.9 6.2 4.2z"/><path d="M236.3 40.6c-.8.4-.9 1.4-.2 3.7.5 1.8 1.2 5.6 1.5 8.5.7 6.1-.5 8.2-4.6 8.2-3.3 0-4.5-2.3-6.1-11.5-1-5.9-1.3-6.4-3.5-6.3-2.8.3-2.8-.5-.8 8.8 1.8 8.7 3.4 11.7 6.9 12.6 2.8.7 8.5-1.2 8.5-2.8 0-.6.5-.6 1.4.1 1.7 1.5 4.6.4 4.6-1.8 0-.9-.4-3.2-.9-5.1-.5-1.9-1.5-6.1-2.1-9.3-1.1-5.4-1.8-6.2-4.7-5.1zM208.5 48c-1.1 1.2-2.2 1.7-2.8 1.1-.5-.5-1.7-.6-2.8-.4-1.5.4-1.8 1.1-1.3 2.7.4 1.1 1.9 5.9 3.3 10.5 2.7 8.5 3.5 9.7 5.9 8.2 1.1-.7.9-2.1-.8-7.9-2.3-7.7-2-11.2 1.1-11.2 1.4 0 1.9-.7 1.9-2.5 0-3-2-3.2-4.5-.5zM170.5 61.8c-5.7 1.3-10.8 7.8-9.9 12.7 1 5.3 4.9 10.4 8.3 10.6.9.1 2.3.2 3.1.3 2.4.3 8.2-2.2 9.6-4.2 1.5-1.9 1.8-5.2.6-5.2-.5 0-1.4 1.1-2 2.5-2.3 5-9.8 4.5-13.1-.9-2.5-4-2.7-7.3-.5-10.5 1.3-1.9 2.4-2.2 5.5-1.9 3.8.3 4.7-.5 3.1-2.7-.8-1.2-2-1.3-4.7-.7zM191.4 71.5c-1 2.5.4 4.5 3 4.5s4.1-3.1 2.3-4.9c-1.6-1.6-4.7-1.3-5.3.4zM139.3 80.5c-3.5 3.5-4 6.4-1.4 7.3.8.3 1.1 0 .8-.6-.4-.5.3-2.2 1.4-3.6 2.3-3 5.5-3.2 7.2-.4.9 1.3.3 2.5-2.6 5.7-2 2.3-3.7 5.2-3.7 6.4 0 3.1 2.9 5.7 6.4 5.7 2.7 0 7.6-3.9 7.6-6 0-.6.3-.9.8-.7 1.3.8 5.2-1.2 5.2-2.7 0-.9-.6-1.3-1.4-1-.8.3-2.8-1.7-5.2-5.5-5.8-9-9.6-10.1-15.1-4.6zm13.5 12.8c-.4 2.9-3.4 4.5-5.5 3.1-2.2-1.4-2-4.6.4-7.4l1.8-2.1 1.8 2.2c1 1.2 1.7 3.1 1.5 4.2zM119.7 94.6c-2.4 1.3-5.2 6.8-4.2 8.4.3.5-.4.6-1.4.3-2.7-.7-7.8 2.6-8.6 5.4-.3 1.3-.9 2.2-1.4 1.9-.4-.3-1.6 0-2.6.7-1.6 1.2-1.3 1.8 3.1 6.6 2.7 3 6.1 6.7 7.6 8.3 2.4 2.7 2.9 2.9 4.7 1.6 2-1.4 1.9-1.4-.7-4.4-5.7-6.2-9.2-10.5-9.2-11.2 0-1.2 3.9-5.2 5.1-5.2.6 0 3.9 3 7.3 6.6 5.9 6.2 6.2 6.4 7.8 4.7 1.5-1.7 1.3-2.1-3.8-7.6-5.8-6.2-6.9-9.8-3.5-11.7 1.1-.5 2.4-1 2.9-1 .9 0 6.7 5.7 11 10.7 1.9 2.2 2 2.2 3.6.4 1.6-1.7 1.3-2.2-4.4-8.3-6.4-7-9.2-8.3-13.3-6.2zM90.7 124.1c-6.2 4.7-7.6 12.8-2.9 17.9 6.5 7.3 17.4 4.7 20.1-4.8.7-2.3.6-3.4-.5-4.3-1.1-.9-1.4-.7-1.4 1.3 0 3.6-3.6 7.8-6.6 7.8-6.5 0-12.3-6.5-10.4-11.5.5-1.4 2.2-3.1 3.7-3.7 1.6-.7 2.9-1.3 3.1-1.4.5-.3-1-3.4-1.7-3.4-.3 0-1.9 1-3.4 2.1zM165 130c0 .5.7 1 1.5 1 1.3 0 1.5 2.1 1.5 12.5 0 11-.2 12.6-1.7 13.3-1.4.5-1.2.8 1.2 1.2 4.1.8 6.1.1 4.1-1.4-1.5-1.1-2.1-7.8-1.6-18.1.2-3.6.5-3.1 3.4 6.1 4.1 12.7 4.5 13.8 5.2 13.2.3-.3 2.2-5.7 4.4-11.9l3.9-11.4v10.7c.1 9.2-.1 10.8-1.6 11.7-1.9 1.1-.8 1.3 6.2 1.3 3.7 0 3.8-.1 2.2-1.7-2-2-2-24.4 0-25.2 2.7-1 1.2-2.1-2.9-1.9l-4.1.1-3.2 9.5-3.2 9.5-1.8-5.5c-1.1-3-2-5.7-2-6 0-.3-.7-2.2-1.4-4.3-1.2-3.5-1.5-3.7-5.7-3.7-2.4 0-4.4.4-4.4 1zM220.7 129.7c-.2.4-1.4 4.2-2.7 8.3-4.5 15.5-5.3 17.5-6.8 18.7-.9.7-1.4 1.3-1.1 1.4 2.2.4 6.9.3 6.9-.1s-.5-1.1-1-1.6c-.6-.6-.8-2.4-.4-4 .5-2.5 1-3 3.2-2.8 5 .3 5.5.4 4.9 1-.3.4-.1 1.6.5 2.7.8 1.6.7 2.3-.8 3.4-1.7 1.2-1.7 1.3.4 1.4 6.9.3 7.7.2 7.3-1.2-1.2-4.1-9.1-27.2-9.4-27.6-.3-.2-.7-.1-1 .4zm1.3 16c0 .7-1.1 1.3-2.4 1.3-2.3 0-2.4-.1-1.3-4.2l1.1-4.3 1.2 3c.7 1.7 1.3 3.6 1.4 4.2zM248.5 130.6c1.8 1.3 2 2.7 2 13.2.1 10.7-.1 11.8-2 12.9-2.3 1.4-2.8 1.2 5 1.7 3.4.2 5.2-.4 3.7-1.3-1-.6-1.5-4.2-1.3-9.6.1-2.7.4-2.4 2.8 2.8 2.2 4.9 2.4 6 1.2 6.8-1.1.7-1 .9.6 1 1.1 0 3.3.2 4.8.3 3.5.2 4.4-1 2.4-3.2-.8-.9-2.9-4.8-4.6-8.6l-3.1-6.8 2.2-3.7c1.2-2 2.5-3.7 2.9-3.9.3-.1 1.5-.9 2.5-1.7 1.7-1.3 1.5-1.4-3.1-1.4-4.3 0-4.8.1-3.3 1.3 1.6 1.1 1.5 1.6-1.1 5.5-1.6 2.3-3.2 4.2-3.6 4.2-.5-.1-.8-1.9-.8-4.1 0-2.8.6-4.5 1.9-5.5 1.7-1.3 1.3-1.4-4.6-1.4-6 0-6.3.1-4.5 1.5zM285.5 129.9c-.3.6.1 1.1.9 1.1 1.8 0 1.7-.3 1.9 13.5.2 8.2-.1 10.3-1.5 11.7-1.6 1.6-1.6 1.7 0 2 .9.2 2.7.2 4 0 1.9-.4 2-.6.8-1.6-1.5-1.1-2-6.4-1.6-17.1.2-5 .2-5 3.9 6.5 2 6.3 4.1 11.4 4.6 11.3.5-.1 2.6-5.3 4.6-11.5l3.8-11.3.1 5.7c.3 14.9.3 15.1-1.5 16.5-2.1 1.4-2 1.5 4.5 1.5 5.2 0 5.6-.1 4.1-1.1-2-1.3-2.3-25.1-.4-25.8 2.6-1 1.2-2.3-2.6-2.3-3.6 0-3.9.2-5.3 4.2-.9 2.4-2.4 6.8-3.5 9.8l-2 5.4-2.9-9.4-3-9.5-4.1-.3c-2.3-.2-4.4.2-4.8.7zM340 131.4c-.5 1.5-1.2 3.7-1.4 4.9-1 4.7-5.6 19-6.6 20.2-1.4 1.7-.5 2.2 3 1.7 2.6-.4 2.8-.6 1.5-1.6-1.2-.8-1.4-2-1-3.9.4-1.5 1-2.7 1.4-2.8 5.3-.7 6.1-.4 7.1 2.6.9 2.5.8 3.2-.7 4.2-1.8 1.4-1.6 1.4 4.5 1.5 2.7 0 3.6-.3 3.3-1.3-1.3-4.9-9-27.1-9.4-27.6-.4-.3-1.1.6-1.7 2.1zm1.5 12.8c.6 2.5.4 2.8-1.8 2.8-2.4 0-2.5-.1-1.4-3.5 1.1-3.8 2.2-3.6 3.2.7zM367 129.9c0 .5.4 1.1.9 1.3.5.1 2.2 3.3 3.9 7 2.9 6.5 3 6.9 1.5 10-.9 1.8-2.6 4.7-3.9 6.5-1.3 1.7-2.4 3.3-2.4 3.5 0 .2 1.2.3 2.8.2 1.5-.1 3.3-.3 4.1-.3 1.1-.1 1-.4-.3-1.4-1.8-1.3-1.8-1.5.2-5.2l1.9-3.9 1.7 3.2c1.9 3.7 2.1 6.2.4 6.3-.7 0-.5.4.5.7 1 .4 3.6.6 5.9.4 3.4-.4 3.9-.7 2.7-1.6-.8-.6-2.9-4.3-4.6-8.1l-3.1-7 2.5-4.5c1.4-2.5 3.2-5 3.9-5.6 2.3-1.8 1.6-2.4-2.8-2.4-3.9.1-4.1.2-2.5 1.4 1.8 1.4 1.8 1.6-.1 5.2l-2 3.9-1.6-4c-1.1-2.5-1.3-4.1-.6-4.3 2.7-.9.5-2.2-4-2.2-2.7 0-5 .4-5 .9zM72.4 148.8c-4 2.7-5.7 9.9-2.9 12.2 1.2 1 1.4.6 1.3-2.5-.2-5.3 4.3-8.5 7.1-5.1.8 1 .7 2.4-.4 5.6-2.1 5.9-1.9 7.5 1.1 9.9 2 1.6 3.1 1.8 5.1 1 3.4-1.3 5.2-3.7 5.3-7.2 0-1.5.6-2.7 1.3-2.7 1.8 0 4.1-4 2.9-5.2-.6-.6-1.2-.6-1.6.1-.5.7-3-.4-7-2.9-6-3.8-9.9-4.8-12.2-3.2zm12.5 9.1c3.9 3 1.1 9.2-3.3 7.5-2.2-.8-2.6-3-1.5-6.4 1.3-3.5 1.6-3.6 4.8-1.1zM50 167.5c-1.6 1.9-.6 4.5 1.9 4.5 2.6 0 3.5-3.7 1.1-5-1.3-.7-2.1-.5-3 .5zM58.1 172.8c-.9 1.7.2 2.5 9.2 6.9 9.8 4.9 11.6 5.1 11.7 1.7 0-.9-17.7-10.4-19.3-10.4-.4 0-1.1.8-1.6 1.8zM275.4 175.7c-3.4.7-5.3 3.5-6.5 9.7-1.1 5.3-1 6.1 1.2 10.4 2.6 5.2 2.6 8.2.1 9.7-3.5 2.1-5.9 2.1-10.7-.2-2.9-1.3-6.9-2.3-9.5-2.3-2.5 0-7.1-.9-10.3-2-3.1-1.1-6.3-2-7-2-.8 0-2.2-.9-3.3-2.1-1.7-1.9-9.5-6.5-10.2-6-.1.2-1.5 0-3-.3s-4.3-.8-6.2-1.1c-7.4-1.2-11.5-2.8-13.9-5.4-2.8-3-9-6.6-9.8-5.7-.3.3-1.8-.1-3.3-.9-1.5-.8-3.1-1.1-3.5-.7-.3.4-1.2.7-1.8.7-3 .1 1.7 10.5 4.7 10.5.7 0 2.5.9 3.9 2s3.3 2 4.2 2c1.7 0 9.5 3.7 19.7 9.4 3.5 1.9 8.3 4 10.8 4.6 2.5.7 5.9 2 7.5 3 1.7 1.1 4.3 2.5 5.8 3.3 2.5 1.3 0 1.5-24.5 1.5-15 0-28 .1-28.8.1-1.3.1-1.5 5-1.3 38.3.1 21.1.2 39.3.2 40.5.1 1.9.6 2.1 3.4 1.8 1.7-.3 5.4-.6 8-.8l4.8-.4-.7 8.1c-.3 4.5-.8 8.3-1.1 8.6-.2.2-2.8.8-5.6 1.1l-5.2.7 5.2-.1c2.9 0 5.5.1 5.7.4.2.2.7 3 1.1 6.1l.7 5.7-5.9.4-5.8.3 6.1.2 6.1.2 1.6 5.7c.8 3.2 1.5 5.9 1.3 6-.1.2-2.3.3-4.9.4-6.1.3-5.1 1.3 1.4 1.5 2.7 0 5.1.3 5.2.5 1.6 2 5.4 9.9 4.9 10.3-.3.3-2.9.6-5.8.6s-5.5.4-5.8.8c-.2.4 2.7.7 6.5.7l7-.1 4.8 5.3c2.7 2.9 4.4 5.4 3.8 5.4-.7.1-2.1.3-3.2.4-1.1.1-7.6.6-14.5 1s-12.7.9-12.9 1.1c-.2.2 7.6.4 17.4.4 17.2 0 17.9.1 20.9 2.4 1.7 1.2 4.6 3.1 6.5 4 1.8 1 2.9 2.1 2.5 2.6-.5.5-6.3 1.1-12.9 1.5-6.6.4-13.8.8-16 1-2.2.2-6.6.5-9.7.6-3.2.1-5.8.5-5.8.8 0 .4 12.7.6 28.3.6 20-.1 29.9.3 34.1 1.2 3.3.8 8.9 1.5 12.6 1.6l6.5.2-.1 3.3c-.1 1.9-1.2 4.4-2.5 5.8-2.1 2.3-2.1 2.4-.3 2.5 7.3.3 13.5.1 14.1-.4.3-.4.1-1.8-.5-3.2-1.2-2.6-1.7-10.3-.6-9.2.3.3 1.7.2 2.9-.3 2.3-.9 2.3-.7 2 3.5-.2 2.4-.6 5.7-1 7.3l-.6 3 7.3-.5c4-.3 7.5-.7 7.7-.9.3-.2-.5-1.4-1.7-2.7-1.1-1.2-2-3.1-1.8-4.2.2-1.1 0-3-.5-4.2-.5-1.4-.4-2.3.4-2.5.7-.2 19.1-.4 40.9-.4 25.7.1 39.9-.3 40.1-.9.2-.5.3-18.6.2-40v-39l-7.3.3-7.2.3.6-7.8c.7-10 .7-9.8 4-10.1 1.5-.1 3-.5 3.3-.8.3-.4-.6-.5-2.1-.2-3.9.7-4.5-.1-5.3-6.4l-.7-5.7 3.3-.4 3.4-.4-3.5-.1c-3.3-.2-3.7-.6-5.3-5.1-.9-2.7-1.7-5.3-1.7-5.8s2.6-1.1 5.7-1.2c8.3-.3 7.9-1.1-.5-1.1-4.2 0-7.2-.4-7.2-1s-1.1-2.8-2.5-5-2.5-4.3-2.5-4.7c0-.5 2.8-1 6.3-1.1 6-.3 11.9-1 12.4-1.6.1-.1-4.6-.2-10.5-.1l-10.7.1-3.3-4.1c-1.9-2.2-4.1-4.6-5-5.3-1.3-1-1.3-1.2-.1-1.3.8-.1 2.5-.2 3.9-.4 1.4-.1 5.1-.3 8.3-.3 10.3-.3 6-2-5.4-2.1-11 0-11.2-.1-16.4-3.6-2.9-1.9-6.1-3.8-6.9-4.1-2.1-.8-2-2 .2-2 1.5 0 17.7-1.1 28.2-1.9 1.9-.1 6.1-.3 9.3-.4 3.2 0 5.6-.4 5.4-.9-.3-.4-11.8-.6-25.6-.6-14.5.1-24.8-.2-24.5-.7.9-1.6 14.7-7.6 20.2-8.9 2.9-.7 6.8-2.3 8.8-3.6 1.9-1.3 5.4-3.4 7.7-4.5 2.3-1.2 5.6-3.2 7.4-4.5 1.7-1.3 3.6-2.4 4.2-2.4.6 0 3.5-1.6 6.6-3.5 7.7-5 9-10.7 2.3-9.9-1.8.2-4.1.4-5.2.5-2.3 0-7.6 3.9-7.6 5.5 0 2.1-6.1 5.1-13.9 6.8-8.8 2-13 3.7-17.3 6.9-1.8 1.4-5.1 2.8-7.3 3.2-2.2.3-5.9 1.5-8.2 2.5-2.4 1-6 1.9-8 1.9-2.1 0-6.4.7-9.5 1.5-6 1.6-10.8.8-10.8-1.9 0-3.4 1.4-7.5 2.5-7.5 1.7 0 2.6-6.2 1.2-7.5-.7-.6-1.3-2.3-1.4-3.9-.4-5.5-6.6-9.3-12.9-7.9zm-79.1 51c-.7.2-1.9.2-2.5 0-.7-.3-.2-.5 1.2-.5s1.9.2 1.3.5zm7.7 13.1c0 .5-.7.9-1.5.9s-1.5-.4-1.5-.9c0-.4.7-.8 1.5-.8s1.5.4 1.5.8zm-3.7 13.9c-.7.2-1.9.2-2.5 0-.7-.3-.2-.5 1.2-.5s1.9.2 1.3.5zm110.7 2.6c0 .5-.4.5-1 .2-.5-.3-1-1.4-1-2.3 0-1.5.2-1.5 1-.2.5.8 1 1.9 1 2.3zm-102.6 9.9c-.3.4-3.5.7-7.2.6l-6.7-.1 6-.6c8.6-.8 8.5-.8 7.9.1zm130 2.3c.3 1.7.7 6.4 1 10.5.3 4.1.8 8.7 1.2 10.2.3 1.4 0 2.9-.5 3.3-.7.4-1.1-.9-1.2-3.7 0-2.4-.2-5-.3-5.8-.7-3.5-1.7-18.4-1.2-18 .3.3.7 1.9 1 3.5zm22.5 56.9c-.8.8-10.8 1.2-10.3.4.3-.4 2.8-.8 5.6-.8s4.9.2 4.7.4zm-78.5 3.8c.3 1.8.8 10.5 1 19.3.1 8.8.6 17.5 1 19.2.7 3.1.5 3.3-1.9 3.3-2.1 0-2.5-.4-2-1.9 1.2-3.9 1.2-17.7-.1-23-1-4.5-1.1-12.2-.2-18.9.3-2.3 1.6-1.2 2.2 2zm70.9 9.8c.3.3-1 .6-2.8.7-1.9.2-3.6-.1-3.9-.5-.5-.8 5.9-1 6.7-.2zm5.1 13.2c-.3.4-1.2.8-2 .8s-1.3-.4-1-.8c.3-.5 1.2-.9 2-.9s1.3.4 1 .9zm5.3 13.4c-.3.3-1.2.4-1.9.1-.8-.3-.5-.6.6-.6 1.1-.1 1.7.2 1.3.5zM67.1 194.3c-1.4 1.4-1.4 4.4-.1 5.2 2 1.2 5-.6 5-3 0-2.5-3.1-4-4.9-2.2zM46 199.7c0 1 1.5 2.8 3.3 4.1 6 4.2 10 7.9 8.6 8-.8 0-4.7.2-8.6.3-9.3.2-9.6 1.9-1.3 7.9 3.3 2.4 5.7 4.7 5.2 5.2s-4.1.9-8 .9c-4 .1-7.2.5-7.2.9 0 .5-.3 1.6-.6 2.5-.6 1.4.1 1.5 5.2 1 3.3-.4 8.7-.7 12.1-.8 8.7-.2 8.8-2.1.6-8.2-3.5-2.6-6.2-4.9-6-5.1.2-.2 3.8-.4 8-.5 10.1-.2 10.4-1.4 1.9-8.3-3.7-2.9-7.8-6.3-9.1-7.5-2.9-2.6-4.1-2.7-4.1-.4z"/><path d="M359 228c0 .5.7.7 1.5.4.8-.4 1.5-.8 1.5-1 0-.2-.7-.4-1.5-.4s-1.5.4-1.5 1zM363 227.9c0 .4 1.1.6 2.5.3 1.4-.2 2.5-.6 2.5-.8 0-.2-1.1-.4-2.5-.4s-2.5.4-2.5.9zM35.2 240.1c.2 1.4 2.6 3.3 7.7 5.9l7.4 3.8-3.9 1.1c-2.1.6-5.8 1.3-8.1 1.7-2.3.3-4.4 1.3-4.8 2.2-.7 1.8-1.4 1.2 7.5 5.8l7.5 3.8-5.5 1.3c-3 .7-6.6 1.4-7.9 1.6-1.7.2-2.7 1.2-3.2 3.1-.6 2-.4 2.6.4 2.3.7-.3 5.5-1.5 10.7-2.7 12.4-2.8 12-2.7 12-4.5 0-.8-3.1-3-7.2-5.2l-7.3-3.7 6.5-1.4c12-2.6 12.3-3.8 2-9.4-4.1-2.2-8.7-4.9-10.2-5.9-3.4-2.4-4-2.4-3.6.2zM369.8 267.7c.6.2 1.8.2 2.5 0 .6-.3.1-.5-1.3-.5-1.4 0-1.9.2-1.2.5zM31.3 281.9c.1 1.6 1.5 2.5 6.7 4.1 10.2 3.1 10.2 3.4 1.6 6.6-10.1 3.8-10 5.3.4 8.3 9.1 2.7 9 3.1-1 6.8-4.6 1.7-5.6 2.5-5.8 4.8-.2 1.5 0 2.6.5 2.4 14.9-6.3 21.3-9.6 21.3-11 0-1.1-2.2-2.3-7.7-3.9l-7.8-2.3 5-2.3c2.8-1.3 6.2-2.8 7.7-3.3 4.6-1.6 2.4-3.6-8-7.4-5.3-1.9-10.5-3.8-11.4-4.2-1.3-.5-1.7-.2-1.5 1.4zM186.8 338.7c.7.3 1.6.2 1.9-.1.4-.3-.2-.6-1.3-.5-1.1 0-1.4.3-.6.6zM190.6 350.8c-.3.5.1.9.9.9s1.5-.4 1.5-.9c0-.4-.4-.8-.9-.8-.6 0-1.2.4-1.5.8zM182.8 364.7c.7.3 1.6.2 1.9-.1.4-.3-.2-.6-1.3-.5-1.1 0-1.4.3-.6.6zM168 409.1c-1.9.3-2.7.7-1.7.8 1.9.1 1.9.4 1.8 15.6 0 7.9-.3 10.2-1.6 11.1-1.3 1-.5 1.2 3.9 1.2 5.3-.1 5.4-.2 4.2-2.2-.8-1.4-1.2-5.6-1.1-12.1.3-13.6.3-13.5 2.2-13.5.9 0 1.4-.3 1.1-.6-.9-.9-5-1-8.8-.3zM205.5 409.2c-1 3-6.8 22.5-7.2 24.5-.3 1.3-.9 2.3-1.4 2.3-.5 0-.9.4-.9.9s1.6.9 3.6.9c2.9 0 3.2-.2 1.9-1.2-1.1-.8-1.4-2-.9-4.4.6-3.1.9-3.3 4.2-3 2.9.2 3.7.8 4.5 3.2.8 2.4.6 3.2-.9 4.3-1.6 1.2-1.3 1.3 3.4 1.2 5.7-.2 5.6-.2 4.2-2.7-.5-.9-2.8-7.4-5-14.5-2.3-7-4.3-12.7-4.6-12.7-.2 0-.7.6-.9 1.2zm1.5 16c0 1.2-.8 1.8-2.4 1.8-2.3 0-2.3-.1-1.3-4.1 1-4.1 1-4.1 2.3-1.8.7 1.3 1.3 3.2 1.4 4.1zM241.7 410c-5.8 4.6-7.6 14.1-4.2 21.4 2.5 5.2 5.8 7.1 11.8 6.7 2.1-.1 6.7-4.8 6.7-6.9 0-.9-1.1-.2-2.9 1.7-3.1 3.4-4.2 3.7-7.2 2-2.7-1.4-4-5.2-4-12-.1-5.7 1.9-11.2 4.3-12.1 2.4-1 6 1.2 7.1 4.2.6 1.6 1.4 3 1.7 3 .9 0 .6-8.7-.3-9.6-.4-.4-.7-.2-.7.5 0 .9-.6 1.1-1.7.6-4.4-1.8-7.9-1.6-10.6.5zM301 409c-1.9.5-2.8 2.1-5.1 8.9-1.6 4.6-3.1 8.6-3.3 8.8-.3.3-1.7-3.6-3.3-8.6l-2.8-9.1h-4.9c-4.5 0-4.8.1-3.1 1.4 1.7 1.2 1.9 2.7 1.8 13.2 0 10.1-.3 11.9-1.9 13.1-1.6 1.1-1.3 1.3 2.6 1.3 3.7 0 4.1-.2 2.7-1.3-1.2-.9-1.6-3.1-1.7-9.7-.2-13.9-.1-14 3.9-1.8 2 6.5 4 12 4.3 12.3.5.6 7.8-19.5 7.8-21.5 0-.6.3-.9.8-.7 1.3.9.8 20-.6 20.5-2.8.9-.8 2 3.8 2 4.9.1 4.9 0 3.7-2.1-1.8-2.9-1.7-24.9.1-25.5.7-.2 1.2-.7 1.2-1.1 0-.8-2.7-.9-6-.1zM334 418.2c-5 16.3-5.1 16.7-6.1 17.3-1.9 1.2-.8 2.2 2.8 2.3 3.1.1 3.4 0 1.9-1.1-1.2-.9-1.5-2-1-4.5.6-3.1.9-3.3 4.2-3 2.9.2 3.7.8 4.5 3.1.7 2.3.6 3.1-.8 4.1-1.6 1.1-1 1.3 3.8 1.3 5.5.1 5.6.1 4.2-2.1-.8-1.1-3.1-7.6-5.3-14.3-2.1-6.8-4.1-12.5-4.4-12.9-.4-.3-2.1 4.1-3.8 9.8zm3.5 5.5c.6 3 .4 3.3-1.8 3.3-2.3 0-2.4-.1-1.4-4 1.2-4.4 2.1-4.2 3.2.7zM372.8 409.7c-5.6 3.5-7.5 15-3.8 22.3 2.1 4.1 3.4 5.3 6.2 5.7 1 .2 2.1.3 2.5.4 3.7.6 9.3-3.5 9.3-6.9 0-.9-1.1-.2-2.9 1.7-1.6 1.7-3.4 3.1-3.9 3.1-4.5 0-7.2-4.7-7.2-12.5 0-10.7 4.6-16 9.6-11 1.3 1.3 2.4 3.1 2.4 4 0 .8.4 1.5.8 1.5s.7-2.1.6-4.8c-.2-5.9-.2-6-1.3-4.3-.6 1-1.3 1.1-2.9.2-2.9-1.6-6.3-1.3-9.4.6z"/></svg>